<svg xmlns="http://www.w3.org/2000/svg" viewBox="0 0 1240 980" width="1240" height="980">
  <defs>
    <style>
      @import url('https://fonts.googleapis.com/css2?family=DM+Mono&amp;family=DM+Serif+Display&amp;family=DM+Sans:wght@400;500&amp;display=swap');
      .bg-outer { fill: #0a0a0a; }
      .card-bg { fill: #0e0e0e; }
      .border-dim { fill: none; stroke: #c8a96e; stroke-width: 1; opacity: 0.25; }
      .border-bright { fill: none; stroke: #c8a96e; stroke-width: 1; opacity: 0.6; }
      .title-label { font-family: 'DM Mono', monospace; font-size: 10px; fill: #c8a96e; letter-spacing: 0.18em; text-transform: uppercase; }
      .title-main { font-family: 'DM Serif Display', serif; font-size: 20px; fill: #f0e6d0; }
      .score-big-dim { font-family: 'DM Serif Display', serif; font-size: 60px; fill: #c8a96e; opacity: 0.5; }
      .score-big { font-family: 'DM Serif Display', serif; font-size: 60px; fill: #c8a96e; }
      .score-label { font-family: 'DM Mono', monospace; font-size: 10px; fill: #666; letter-spacing: 0.12em; text-transform: uppercase; }
      .row-label { font-family: 'DM Mono', monospace; font-size: 10px; fill: #c8a96e; letter-spacing: 0.08em; }
      .row-label-dim { font-family: 'DM Mono', monospace; font-size: 10px; fill: #c8a96e; letter-spacing: 0.08em; opacity: 0.5; }
      .row-label-na { font-family: 'DM Mono', monospace; font-size: 10px; fill: #2d2d2d; letter-spacing: 0.08em; }
      .row-name { font-family: 'DM Sans', sans-serif; font-size: 12px; fill: #999; }
      .row-name-dim { font-family: 'DM Sans', sans-serif; font-size: 12px; fill: #666; }
      .row-name-na { font-family: 'DM Sans', sans-serif; font-size: 12px; fill: #2d2d2d; }
      .row-score-full { font-family: 'DM Mono', monospace; font-size: 12px; fill: #f0e6d0; text-anchor: end; }
      .row-score-full-dim { font-family: 'DM Mono', monospace; font-size: 12px; fill: #f0e6d0; opacity: 0.5; text-anchor: end; }
      .row-score-half { font-family: 'DM Mono', monospace; font-size: 12px; fill: #c8a96e; text-anchor: end; }
      .row-score-half-dim { font-family: 'DM Mono', monospace; font-size: 12px; fill: #c8a96e; opacity: 0.5; text-anchor: end; }
      .row-score-zero { font-family: 'DM Mono', monospace; font-size: 12px; fill: #444; text-anchor: end; }
      .row-score-na { font-family: 'DM Mono', monospace; font-size: 12px; fill: #2d2d2d; text-anchor: end; }
      .row-note-na { font-family: 'DM Mono', monospace; font-size: 8px; fill: #2d2d2d; letter-spacing: 0.06em; text-anchor: end; }
      .divider { stroke: #c8a96e; stroke-width: 1; opacity: 0.08; }
      .divider-bright { stroke: #c8a96e; stroke-width: 1; opacity: 0.15; }
      .divider-na { stroke: #c8a96e; stroke-width: 1; opacity: 0.04; }
      .verdict-fail { font-family: 'DM Mono', monospace; font-size: 9px; fill: #c84a4a; letter-spacing: 0.15em; text-transform: uppercase; }
      .verdict-pass { font-family: 'DM Mono', monospace; font-size: 9px; fill: #6db86d; letter-spacing: 0.15em; text-transform: uppercase; }
      .verdict-functional { font-family: 'DM Mono', monospace; font-size: 9px; fill: #c8a96e; letter-spacing: 0.15em; text-transform: uppercase; }
      .bar-bg { fill: #1a1a1a; }
      .bar-dim { fill: #c8a96e; opacity: 0.2; }
      .bar-bright { fill: #c8a96e; opacity: 0.75; }
    </style>
    <filter id="glow">
      <feGaussianBlur stdDeviation="3" result="blur"/>
      <feComposite in="SourceGraphic" in2="blur" operator="over"/>
    </filter>
  </defs>

  <!-- Background -->
  <rect width="1240" height="980" class="bg-outer"/>

  <!-- ============================================================ -->
  <!-- AGENTS.md — y: 20–480 -->
  <!-- ============================================================ -->

  <!-- Left: Before -->
  <rect x="20" y="20" width="580" height="460" rx="4" class="card-bg"/>
  <rect x="21" y="21" width="578" height="458" rx="3" class="border-dim"/>

  <text x="50" y="60" class="title-label">Before remediation  ·  governance document</text>
  <text x="50" y="84" class="title-main">Agent Instructions</text>

  <text x="50" y="148" class="score-big">64%</text>
  <text x="50" y="166" class="score-label">4.5 / 7.0  ·  Functional</text>

  <rect x="50" y="178" width="520" height="5" class="bar-bg" rx="2"/>
  <rect x="50" y="178" width="334" height="5" class="bar-dim" rx="2"/>

  <line x1="50" y1="198" x2="570" y2="198" class="divider"/>

  <text x="50" y="220" class="row-label">P1</text>
  <text x="82" y="220" class="row-name">Success Definition</text>
  <text x="548" y="220" class="row-score-full">1.0</text>
  <line x1="50" y1="228" x2="570" y2="228" class="divider"/>

  <text x="50" y="248" class="row-label">P2</text>
  <text x="82" y="248" class="row-name">Assessment Rubric</text>
  <text x="548" y="248" class="row-score-half">0.5</text>
  <line x1="50" y1="256" x2="570" y2="256" class="divider"/>

  <text x="50" y="276" class="row-label">P3</text>
  <text x="82" y="276" class="row-name">Scope Boundary</text>
  <text x="548" y="276" class="row-score-full">1.0</text>
  <line x1="50" y1="284" x2="570" y2="284" class="divider"/>

  <text x="50" y="304" class="row-label">P4</text>
  <text x="82" y="304" class="row-name">Data Classification</text>
  <text x="548" y="304" class="row-score-half">0.5</text>
  <line x1="50" y1="312" x2="570" y2="312" class="divider"/>

  <text x="50" y="332" class="row-label">P5</text>
  <text x="82" y="332" class="row-name">Quality Gate</text>
  <text x="548" y="332" class="row-score-half">0.5</text>
  <line x1="50" y1="340" x2="570" y2="340" class="divider"/>

  <text x="50" y="360" class="row-label">P6</text>
  <text x="82" y="360" class="row-name">Internal Consistency</text>
  <text x="548" y="360" class="row-score-half">0.5</text>
  <line x1="50" y1="368" x2="570" y2="368" class="divider"/>

  <text x="50" y="388" class="row-label">P7</text>
  <text x="82" y="388" class="row-name">Contextual Currency</text>
  <text x="548" y="388" class="row-score-zero">0.0</text>

  <line x1="50" y1="406" x2="570" y2="406" class="divider"/>
  <text x="50" y="430" class="verdict-functional">Functional  ·  four principles need attention</text>
  <text x="548" y="430" class="verdict-functional" style="text-anchor:end;">4.5 / 7.0</text>

  <!-- Right: After -->
  <rect x="640" y="20" width="580" height="460" rx="4" class="card-bg"/>
  <rect x="641" y="21" width="578" height="458" rx="3" class="border-bright"/>

  <text x="670" y="60" class="title-label">After remediation  ·  governance document</text>
  <text x="670" y="84" class="title-main">Agent Instructions</text>

  <text x="670" y="148" class="score-big">93%</text>
  <text x="670" y="166" class="score-label">6.5 / 7.0  ·  Structurally sound</text>

  <rect x="670" y="178" width="520" height="5" class="bar-bg" rx="2"/>
  <rect x="670" y="178" width="483" height="5" class="bar-bright" rx="2" filter="url(#glow)"/>

  <line x1="670" y1="198" x2="1190" y2="198" class="divider-bright"/>

  <text x="670" y="220" class="row-label">P1</text>
  <text x="702" y="220" class="row-name">Success Definition</text>
  <text x="1168" y="220" class="row-score-full">1.0</text>
  <line x1="670" y1="228" x2="1190" y2="228" class="divider-bright"/>

  <text x="670" y="248" class="row-label">P2</text>
  <text x="702" y="248" class="row-name">Assessment Rubric</text>
  <text x="1168" y="248" class="row-score-full">1.0</text>
  <line x1="670" y1="256" x2="1190" y2="256" class="divider-bright"/>

  <text x="670" y="276" class="row-label">P3</text>
  <text x="702" y="276" class="row-name">Scope Boundary</text>
  <text x="1168" y="276" class="row-score-full">1.0</text>
  <line x1="670" y1="284" x2="1190" y2="284" class="divider-bright"/>

  <text x="670" y="304" class="row-label">P4</text>
  <text x="702" y="304" class="row-name">Data Classification</text>
  <text x="1168" y="304" class="row-score-half">0.5</text>
  <line x1="670" y1="312" x2="1190" y2="312" class="divider-bright"/>

  <text x="670" y="332" class="row-label">P5</text>
  <text x="702" y="332" class="row-name">Quality Gate</text>
  <text x="1168" y="332" class="row-score-full">1.0</text>
  <line x1="670" y1="340" x2="1190" y2="340" class="divider-bright"/>

  <text x="670" y="360" class="row-label">P6</text>
  <text x="702" y="360" class="row-name">Internal Consistency</text>
  <text x="1168" y="360" class="row-score-full">1.0</text>
  <line x1="670" y1="368" x2="1190" y2="368" class="divider-bright"/>

  <text x="670" y="388" class="row-label">P7</text>
  <text x="702" y="388" class="row-name">Contextual Currency</text>
  <text x="1168" y="388" class="row-score-full">1.0</text>

  <line x1="670" y1="406" x2="1190" y2="406" class="divider-bright" style="opacity:0.3;"/>
  <text x="670" y="430" class="verdict-pass">Structurally sound  ·  P4 gap remains</text>
  <text x="1168" y="430" class="verdict-pass" style="text-anchor:end;">6.5 / 7.0</text>

  <!-- Centre divider -->
  <line x1="620" y1="40" x2="620" y2="460" stroke="#c8a96e" stroke-width="1" opacity="0.15"/>

  <!-- ============================================================ -->
  <!-- Section separator -->
  <!-- ============================================================ -->
  <line x1="20" y1="490" x2="1220" y2="490" stroke="#c8a96e" stroke-width="1" opacity="0.06"/>
  <text x="620" y="497" style="font-family:'DM Mono',monospace;font-size:8px;fill:#2d2d2d;letter-spacing:0.15em;text-transform:uppercase;text-anchor:middle;">PromptQ v1.3.1  ·  nuphirho.dev  ·  2026-06-10</text>

  <!-- ============================================================ -->
  <!-- STYLE_GUIDE.md — y: 500–960 -->
  <!-- ============================================================ -->

  <!-- Left: Before -->
  <rect x="20" y="500" width="580" height="460" rx="4" class="card-bg"/>
  <rect x="21" y="501" width="578" height="458" rx="3" class="border-dim"/>

  <text x="50" y="540" class="title-label">Before remediation  ·  style and design guide</text>
  <text x="50" y="564" class="title-main">Style Guide</text>

  <text x="50" y="628" class="score-big">40%</text>
  <text x="50" y="646" class="score-label">2.0 / 5.0  ·  Below threshold</text>

  <rect x="50" y="658" width="520" height="5" class="bar-bg" rx="2"/>
  <rect x="50" y="658" width="208" height="5" class="bar-dim" rx="2"/>

  <line x1="50" y1="678" x2="570" y2="678" class="divider"/>

  <text x="50" y="700" class="row-label">P1</text>
  <text x="82" y="700" class="row-name">Success Definition</text>
  <text x="548" y="700" class="row-score-full">1.0</text>
  <line x1="50" y1="708" x2="570" y2="708" class="divider"/>

  <text x="50" y="728" class="row-label">P2</text>
  <text x="82" y="728" class="row-name">Assessment Rubric</text>
  <text x="548" y="728" class="row-score-zero">0.0</text>
  <line x1="50" y1="736" x2="570" y2="736" class="divider"/>

  <text x="50" y="756" class="row-label">P3</text>
  <text x="82" y="756" class="row-name">Scope Boundary</text>
  <text x="548" y="756" class="row-score-half">0.5</text>
  <line x1="50" y1="764" x2="570" y2="764" class="divider"/>

  <text x="50" y="784" class="row-label-na">P4</text>
  <text x="82" y="784" class="row-name-na">Data Classification</text>
  <text x="460" y="784" class="row-note-na">not scored</text>
  <text x="548" y="784" class="row-score-na">—</text>
  <line x1="50" y1="792" x2="570" y2="792" class="divider-na"/>

  <text x="50" y="812" class="row-label-na">P5</text>
  <text x="82" y="812" class="row-name-na">Quality Gate</text>
  <text x="460" y="812" class="row-note-na">not scored</text>
  <text x="548" y="812" class="row-score-na">—</text>
  <line x1="50" y1="820" x2="570" y2="820" class="divider"/>

  <text x="50" y="840" class="row-label">P6</text>
  <text x="82" y="840" class="row-name">Internal Consistency</text>
  <text x="548" y="840" class="row-score-half">0.5</text>
  <line x1="50" y1="848" x2="570" y2="848" class="divider"/>

  <text x="50" y="868" class="row-label">P7</text>
  <text x="82" y="868" class="row-name">Contextual Currency</text>
  <text x="548" y="868" class="row-score-zero">0.0</text>

  <line x1="50" y1="886" x2="570" y2="886" class="divider"/>
  <text x="50" y="910" class="verdict-fail">Below threshold  ·  remediation required</text>
  <text x="548" y="910" class="verdict-fail" style="text-anchor:end;">2.0 / 5.0</text>

  <!-- Right: After -->
  <rect x="640" y="500" width="580" height="460" rx="4" class="card-bg"/>
  <rect x="641" y="501" width="578" height="458" rx="3" class="border-bright"/>

  <text x="670" y="540" class="title-label">After remediation  ·  style and design guide</text>
  <text x="670" y="564" class="title-main">Style Guide</text>

  <text x="670" y="628" class="score-big">90%</text>
  <text x="670" y="646" class="score-label">4.5 / 5.0  ·  Structurally sound</text>

  <rect x="670" y="658" width="520" height="5" class="bar-bg" rx="2"/>
  <rect x="670" y="658" width="468" height="5" class="bar-bright" rx="2" filter="url(#glow)"/>

  <line x1="670" y1="678" x2="1190" y2="678" class="divider-bright"/>

  <text x="670" y="700" class="row-label">P1</text>
  <text x="702" y="700" class="row-name">Success Definition</text>
  <text x="1168" y="700" class="row-score-full">1.0</text>
  <line x1="670" y1="708" x2="1190" y2="708" class="divider-bright"/>

  <text x="670" y="728" class="row-label">P2</text>
  <text x="702" y="728" class="row-name">Assessment Rubric</text>
  <text x="1168" y="728" class="row-score-full">1.0</text>
  <line x1="670" y1="736" x2="1190" y2="736" class="divider-bright"/>

  <text x="670" y="756" class="row-label">P3</text>
  <text x="702" y="756" class="row-name">Scope Boundary</text>
  <text x="1168" y="756" class="row-score-half">0.5</text>
  <line x1="670" y1="764" x2="1190" y2="764" class="divider-bright"/>

  <text x="670" y="784" class="row-label-na">P4</text>
  <text x="702" y="784" class="row-name-na">Data Classification</text>
  <text x="1080" y="784" class="row-note-na">not scored</text>
  <text x="1168" y="784" class="row-score-na">—</text>
  <line x1="670" y1="792" x2="1190" y2="792" class="divider-na"/>

  <text x="670" y="812" class="row-label-na">P5</text>
  <text x="702" y="812" class="row-name-na">Quality Gate</text>
  <text x="1080" y="812" class="row-note-na">not scored</text>
  <text x="1168" y="812" class="row-score-na">—</text>
  <line x1="670" y1="820" x2="1190" y2="820" class="divider-bright"/>

  <text x="670" y="840" class="row-label">P6</text>
  <text x="702" y="840" class="row-name">Internal Consistency</text>
  <text x="1168" y="840" class="row-score-full">1.0</text>
  <line x1="670" y1="848" x2="1190" y2="848" class="divider-bright"/>

  <text x="670" y="868" class="row-label">P7</text>
  <text x="702" y="868" class="row-name">Contextual Currency</text>
  <text x="1168" y="868" class="row-score-full">1.0</text>

  <line x1="670" y1="886" x2="1190" y2="886" class="divider-bright" style="opacity:0.3;"/>
  <text x="670" y="910" class="verdict-pass">Above threshold  ·  P3 gap remains</text>
  <text x="1168" y="910" class="verdict-pass" style="text-anchor:end;">4.5 / 5.0</text>

  <!-- Centre divider -->
  <line x1="620" y1="520" x2="620" y2="940" stroke="#c8a96e" stroke-width="1" opacity="0.15"/>

</svg>
